Simulation
nRows=28
nColumns=15
endheader
time  TH_x TH_y TH_z SC_y  SC_z  SC_x  AC_y  AC_z  AC_x  GH_y  GH_z  GH_yy  EL_x  PS_y
0.0  0.000000  0.000000  0.000000  -29.5452241714648  -0.38961928906485804  30.68396094335584  49.19510723627501  -17.65503808255159  -24.332444126725047  -130.86032701633383  1.3686761134580947  160.04310386088923  22.832186098477003  0.000000
0.031  0.000000  0.000000  0.000000  -29.58711532102443  -0.33236118121003827  30.7542422905121  48.9733146000226  -17.586843170983048  -24.58021122845886  -121.22899228643927  1.554278791630893  150.39380613403156  22.762557008397824  0.000000
0.062  0.000000  0.000000  0.000000  -29.53130786817526  -0.3499545011331295  30.85835697700801  48.824821997725046  -17.58835768909749  -24.768329873424552  -115.2968082527462  1.6615973430284423  144.45209950038654  22.729610888572193  0.000000
0.093  0.000000  0.000000  0.000000  -29.521056693979812  -0.40595695686042077  30.961613050375323  48.75462491083133  -17.65532536444122  -24.926435134468377  -110.59056045774916  1.597968774247272  139.67476843516206  22.677870409799073  0.000000
0.124  0.000000  0.000000  0.000000  -29.520180019883075  -0.47564420415082387  31.07066276123585  48.701532064429195  -17.754651383486284  -25.073398290015884  -105.22728665264877  1.4221624119440532  134.1847432087526  22.59584584017406  0.000000
0.155  0.000000  0.000000  0.000000  -29.532545348279562  -0.5498060415086037  31.17912369646078  48.66058450096703  -17.86966858201069  -25.213091668669936  -96.72657514887582  1.1482469014967809  125.48988002287058  22.473492325126404  0.000000
0.186  0.000000  0.000000  0.000000  -29.55691201651433  -0.6225250658119263  31.278412184029367  48.62167182410505  -17.97790842193984  -25.34671693775345  -78.7492126138845  0.8303449269298226  107.2412205900066  22.3255369846923  0.000000
0.217  0.000000  0.000000  0.000000  -29.595337387855103  -0.6910120549062253  31.365317897970716  48.584196316601  -18.070220653512454  -25.472254740134538  -37.56039744377639  0.662783701119154  65.69604948650694  22.154181439897126  0.000000
0.248  0.000000  0.000000  0.000000  -29.648414812211787  -0.7536700693343419  31.436056385300482  48.55005858784814  -18.138908348193755  -25.58852651985947  4.833085627935924  0.9657180681638959  22.85693297883879  21.970770764468824  0.000000
0.279  0.000000  0.000000  0.000000  -29.71446368352758  -0.8087838764761051  31.49193016379555  48.521149541402096  -18.182278755016217  -25.69067339264144  23.117341015944106  1.6056384039565124  4.039723323220877  21.780185281397184  0.000000
0.31  0.000000  0.000000  0.000000  -29.789617235115752  -0.8558567243749761  31.53212642055484  48.503581547375035  -18.200255032142888  -25.7736356816964  30.770076513941948  2.4114776159322515  -4.2291782372627384  21.59213229296331  0.000000
0.34099999999999997  0.000000  0.000000  0.000000  -29.873396874642577  -0.894342989403563  31.558475256071706  48.503566446430035  -18.19637338896383  -25.828384458243317  34.32968198217147  3.334323816889516  -8.483959803367991  21.416928749612175  0.000000
0.372  0.000000  0.000000  0.000000  -29.967024277800082  -0.9257750660715779  31.57177222667007  48.53038365972313  -18.17636556448758  -25.846346995947496  35.952391039468466  4.362149589224371  -10.881995820418247  21.271487675096576  0.000000
0.403  0.000000  0.000000  0.000000  -30.074179002405366  -0.9512177902686041  31.57904961513747  48.59219506212385  -18.15002902058979  -25.81861977898885  36.46290528388784  5.492336560407892  -12.247958152686962  21.17603504950886  0.000000
0.434  0.000000  0.000000  0.000000  -30.19450323299334  -0.9700463248459897  31.583804738706025  48.69281462678575  -18.12553798939742  -25.738178892598583  36.28676586824329  6.723198833961671  -13.004106266451805  21.148422331193256  0.000000
0.46499999999999997  0.000000  0.000000  0.000000  -30.319617230449484  -0.9819460676807751  31.586019970718773  48.835345676971045  -18.105890805791724  -25.603656058110737  35.69044054834676  8.048413369140274  -13.404033640427002  21.190159697060466  0.000000
0.496  0.000000  0.000000  0.000000  -30.43651361145226  -0.9884415103969506  31.584456322189546  49.01460334003046  -18.08750789830564  -25.420221260137513  34.847576502172544  9.454341424793459  -13.595170903523764  21.28295582360424  0.000000
0.527  0.000000  0.000000  0.000000  -30.53539566542893  -0.9872226854007105  31.580441595602462  49.21862392026624  -18.06001520738247  -25.19333627226095  33.868141221811484  10.92351524647281  -13.649822998836372  21.397235494105097  0.000000
0.558  0.000000  0.000000  0.000000  -30.60439772786484  -0.9696914524855483  31.572994991919902  49.443396332910254  -18.01123822988652  -24.93330770517956  32.85059118226199  12.447170218856762  -13.632811376615848  21.50637132822343  0.000000
0.589  0.000000  0.000000  0.000000  -30.647399193334472  -0.9267333711105139  31.56834653191404  49.6793377596914  -17.932161599299572  -24.65045192382497  31.850968503916704  14.021013649401787  -13.577369363398018  21.59376417411268  0.000000
0.62  0.000000  0.000000  0.000000  -30.675578850490666  -0.8526529409259517  31.57112665784638  49.91768811578005  -17.816747872567515  -24.355587982753196  30.92123265427058  15.643286506063067  -13.530467055576429  21.650828014476144  0.000000
0.651  0.000000  0.000000  0.000000  -30.700792215976424  -0.7460704517355601  31.587420963915243  50.1527584578041  -17.66328610770407  -24.056125411685866  30.08363964685705  17.31128678983478  -13.516536788009093  21.675554806868888  0.000000
0.6819999999999999  0.000000  0.000000  0.000000  -30.72689605768615  -0.610472846417392  31.62062505999212  50.383768687027974  -17.475133053498237  -23.755973197594848  29.33355533853371  19.022694758683052  -13.539514796011499  21.670203410372626  0.000000
0.713  0.000000  0.000000  0.000000  -30.75303359210273  -0.4532079636241517  31.675340596272996  50.614361232277766  -17.26034748639112  -23.455868748755982  28.639888345320287  20.775495986835775  -13.578101225200891  21.64024248903135  0.000000
0.744  0.000000  0.000000  0.000000  -30.77300438973614  -0.28309351422436857  31.754621361502647  50.85044318960148  -17.02873162164949  -23.156101836578333  27.970826837923834  22.56602464382288  -13.610842820434378  21.592804644165575  0.000000
0.775  0.000000  0.000000  0.000000  -30.783842991750756  -0.10738490884210244  31.86451079375402  51.09667298963765  -16.789290100986747  -22.857049293914493  27.31096240644069  24.38635402604206  -13.629731727264854  21.5325348771092  0.000000
0.806  0.000000  0.000000  0.000000  -30.783758006961133  0.07077969201972034  32.00905841311636  51.35582599534391  -16.547049793817997  -22.56014772356912  26.6706772256025  26.222746301915592  -13.648055828926486  21.459724003959426  0.000000
0.837  0.000000  0.000000  0.000000  -30.77556498152607  0.2513724241416488  32.194049142802  51.62679531254288  -16.303362460109835  -22.267605478360128  26.07084424587876  28.056309204830928  -13.685650169686953  21.370750455592567  0.000000
